<?xml version="1.0" encoding="utf-8"?>
<!-- Generator: Adobe Illustrator 27.2.0, SVG Export Plug-In . SVG Version: 6.00 Build 0)  -->
<svg version="1.1" id="Capa_1" xmlns="http://www.w3.org/2000/svg" xmlns:xlink="http://www.w3.org/1999/xlink" x="0px" y="0px"
	 viewBox="0 0 500 500" style="enable-background:new 0 0 500 500;" xml:space="preserve">
<style type="text/css">
	.st0{fill:#F39F00;}
</style>
<g>
	<g>
		<path class="st0" d="M282.06,134.01c-11.37,13.12-32.63,8.32-38.05-7.69c-0.78-2.3-1.18-5.78-1.21-10.42
			c-0.12-19.83-0.17-39.66-0.14-59.51c0-1.9,0.32-3.31,0.95-4.23c2.06-3,7.38-2.85,9.17,0.28c0.56,0.96,0.84,2.58,0.85,4.86
			c0.12,19.06,0.17,38.13,0.15,57.19c-0.01,4.3,0.37,7.36,1.15,9.17c2.44,5.71,9.3,8.27,14.95,5.65c3.53-1.64,5-3.85,6.58-7.66
			c7.77-18.82,15.53-37.64,23.28-56.45c1.81-4.4,7.29-6.02,10.08-1.58c1.77,2.82,0.46,5.18-0.71,8
			c-7.25,17.47-14.48,34.95-21.69,52.44C285.46,128.83,283.67,132.15,282.06,134.01z"/>
		<path class="st0" d="M209.88,122.53c-7.22-17.71-14.43-35.42-21.64-53.14c-1.19-2.91-0.83-5.21,1.06-6.89
			c2.95-2.62,7.42-1.92,8.97,1.91c7.76,19.14,15.55,38.28,23.37,57.4c6.81,16.66-3.85,33.56-22.49,32.54
			c-6.45-0.35-11.06-3.93-15.99-8.91c-13.78-13.89-27.53-27.81-41.26-41.75c-1.48-1.49-2.36-2.81-2.65-3.93
			c-1.02-4.02,3.66-8,7.29-6.39c0.85,0.38,2.2,1.5,4.05,3.37c12.92,13.05,25.82,26.11,38.71,39.18c3.51,3.55,5.62,6.3,9.99,7.16
			c4.85,0.97,10.21-1.82,12.34-6.21C213.97,132.06,212.17,128.12,209.88,122.53z"/>
		<path class="st0" d="M379.82,143.22c1.88-0.81,4.18-1.93,6.13-1.88c4.58,0.12,7.03,6.32,3.79,9.41c-0.64,0.61-2.1,1.39-4.38,2.34
			c-15.22,6.33-30.44,12.67-45.65,19.02c-8.38,3.5-13.44,5.42-15.17,5.74c-18.25,3.47-32.77-15.6-24.17-32.35
			c1-1.93,3.23-4.66,6.69-8.19c13.8-14.02,27.66-27.98,41.58-41.88c6-6,13.78,1.75,7.9,7.68c-14.56,14.69-29.11,29.38-43.67,44.06
			c-6.43,6.49-4.33,17.03,4.62,19.58c4.58,1.31,8.7-1.12,13.22-2.98C347.13,157.03,363.5,150.18,379.82,143.22z"/>
		<path class="st0" d="M114.42,153.34c-3.37-1.41-6.73-2.21-7.6-5.62c-1.25-4.9,3.4-8.19,7.89-6.29
			c19.65,8.32,39.29,16.63,58.93,24.95c6.69,2.83,11.18,9.15,12.56,16.32c2.63,13.69-7.76,26.42-21.99,26.41
			c-19.16,0-38.32-0.01-57.47-0.02c-3.99-0.01-6.57-0.14-7.74-0.39c-3.15-0.69-4.66-4.48-3.54-7.39c0.93-2.44,3-3.64,6.21-3.6
			c11.64,0.14,32.83,0.26,63.56,0.35c2.8,0.01,5.31-1.36,7.54-4.11c4.53-5.6,3.14-13.48-2.93-17.09c-0.08-0.04-2.34-1.01-6.78-2.91
			C140.95,164.51,124.74,157.65,114.42,153.34z"/>
		<circle class="st0" cx="249.17" cy="204.28" r="32.04"/>
		<path class="st0" d="M325.82,241.88c-8.19-3.33-13.1-8.78-14.72-16.35c-2.45-11.45,3.58-22.92,14.98-26.39
			c2.71-0.83,7.34-1.24,13.88-1.23c18.41,0.02,36.81,0.07,55.2,0.14c2.07,0.01,3.59,0.33,4.55,0.96c3.07,2.01,2.92,7.35-0.15,9.25
			c-0.96,0.6-2.5,0.9-4.62,0.89c-20.52-0.04-41.05-0.04-61.58,0.02c-9.22,0.02-15.29,10.02-9.68,17.71
			c1.47,2.02,3.56,3.59,6.26,4.72c17.64,7.35,35.28,14.71,52.92,22.07c3.38,1.41,5.11,2.14,5.19,2.19c5.62,3.51,1.3,12.6-4.93,9.97
			C354.49,253.74,335.39,245.76,325.82,241.88z"/>
		<path class="st0" d="M184.39,259.74c7.07-6.98,1.88-20.3-8.42-19.63c-1.44,0.09-3.79,0.81-7.08,2.16
			c-17.89,7.35-35.78,14.71-53.67,22.07c-3.35,1.38-6.37,2.14-8.55-0.95c-2.55-3.61-0.72-7.26,3.21-8.87
			c17.37-7.13,34.73-14.28,52.08-21.45c5.78-2.38,10.03-3.69,12.75-3.93c17.51-1.53,29.67,17.13,21.66,32.75
			c-0.97,1.91-3.03,4.44-6.16,7.59c-16.35,16.46-30.68,30.76-42.98,42.88c-3.4,3.34-8.61,1.17-9.34-3.24
			c-0.41-2.5,1.2-4.22,2.87-5.88C155.23,288.67,169.77,274.17,184.39,259.74z"/>
		<path class="st0" d="M293.6,299.67c5.28,12.83,10.53,25.67,15.76,38.51c1.6,3.92,0.64,6.57-2.87,7.98
			c-3.9,1.56-6.23-1.23-7.68-4.7c-7.55-18.18-15.05-36.39-22.5-54.61c-1.62-3.96-2.52-7.13-2.7-9.53
			c-1.32-17.38,16.45-29.58,32.27-22.06c2.03,0.96,4.51,2.9,7.44,5.83c14.14,14.1,28.25,28.22,42.32,42.37
			c1.31,1.32,2.14,2.44,2.48,3.37c1.25,3.4-1.19,6.79-4.64,7.1c-1.8,0.16-3.51-0.57-5.14-2.19c-13.77-13.68-27.48-27.42-41.14-41.21
			c-2.89-2.92-5.25-4.75-7.1-5.51c-8.66-3.53-18.46,5.39-14.82,14.33C288.05,286.14,290.82,292.91,293.6,299.67z"/>
		<path class="st0" d="M241.6,283.5c-2.88-6.52-12.83-8.5-18.06-3.31c-1.19,1.18-2.53,3.54-4.01,7.09
			c-7.66,18.35-15.34,36.7-23.04,55.04c-1.88,4.46-7.09,5.52-9.83,1.56c-1.54-2.22-1.06-4.28,0.01-6.82
			c7.47-17.68,14.89-35.38,22.24-53.11c2-4.81,3.82-8.19,5.47-10.15c11.23-13.33,33.39-8.76,38.32,7.94
			c0.79,2.68,1.17,7.77,1.14,15.3c-0.09,17.62-0.12,35.24-0.09,52.86c0.01,2.03-0.16,3.47-0.49,4.33c-1.31,3.4-5.52,4.33-8.35,2.38
			c-1.51-1.04-2.27-2.75-2.27-5.13c-0.01-19.38,0.04-38.77,0.14-58.15C242.81,288.63,242.41,285.36,241.6,283.5z"/>
	</g>
	<g>
		<path class="st0" d="M40.77,429.99c-12.51,0-18.77-5.63-18.77-16.89s6.26-16.89,18.77-16.89h31.91c3.11,0,5.63,2.52,5.63,5.63l0,0
			c0,3.11-2.52,5.63-5.63,5.63H42.65c-6.26,0-9.39,1.88-9.39,5.63s3.13,5.63,9.39,5.63h16.89c12.51,0,18.77,5.63,18.77,16.89
			s-6.26,16.89-18.77,16.89H27.63c-3.11,0-5.63-2.52-5.63-5.63l0,0c0-3.11,2.52-5.63,5.63-5.63h30.03c6.26,0,9.39-1.88,9.39-5.63
			s-3.13-5.63-9.39-5.63H40.77z"/>
		<path class="st0" d="M127.11,452.52l-18.77,0.04v-0.04c-12.51,0-18.77-6.26-18.77-18.77v-18.77c0-12.51,6.26-18.77,18.77-18.77
			h18.77c12.51,0,18.77,6.26,18.77,18.77v18.77C145.89,446.24,139.63,452.49,127.11,452.52z M125.24,441.26
			c6.26,0,9.39-3.13,9.39-9.39v-15.02c0-6.26-3.13-9.39-9.39-9.39h-16.89c-5.01,0-7.51,3.13-7.51,9.39v15.02
			c0,6.26,3.13,9.39,9.39,9.39H125.24z"/>
		<path class="st0" d="M213.46,446.89L213.46,446.89c0,3.11-2.52,5.63-5.63,5.63h-45.05c-3.11,0-5.63-2.52-5.63-5.63v-45.05
			c0-3.11,2.52-5.63,5.63-5.63h0c3.11,0,5.63,2.52,5.63,5.63v33.79c0,3.11,2.52,5.63,5.63,5.63h33.79
			C210.94,441.26,213.46,443.78,213.46,446.89z"/>
		<path class="st0" d="M237.64,441.26l-3.41,7.87c-0.89,2.06-2.92,3.39-5.17,3.39l0,0c-4.05,0-6.78-4.15-5.16-7.87l18.59-42.83
			c1.48-3.41,4.84-5.61,8.56-5.61h0c3.72,0,7.08,2.21,8.56,5.61l18.6,42.85c1.61,3.71-1.11,7.85-5.15,7.85l0,0
			c-2.24,0-4.26-1.33-5.15-3.38l-3.42-7.88H237.64z M258.05,426.52l-4.74-10.92c-0.86-1.99-3.69-1.99-4.55,0l-4.74,10.92
			c-0.71,1.64,0.49,3.47,2.28,3.47h9.48C257.56,429.99,258.77,428.16,258.05,426.52z"/>
		<path class="st0" d="M305.28,429.99h-5.48v16.89c0,3.11-2.52,5.63-5.63,5.63h0c-3.11,0-5.63-2.52-5.63-5.63V403.8
			c0-4.19,3.4-7.59,7.59-7.59h29.95c12.51,0,18.77,5.63,18.77,16.89s-6.26,16.89-18.77,16.89h-3.49l20.7,17.64
			c1.96,1.67,0.78,4.88-1.8,4.88h-8.76c-0.66,0-1.3-0.23-1.8-0.66L305.28,429.99z M324.2,418.73c6.26,0,9.39-1.88,9.39-5.63
			s-3.13-5.63-9.39-5.63h-22.26c-1.18,0-2.14,0.96-2.14,2.14v6.99c0,1.18,0.96,2.14,2.14,2.14H324.2z"/>
		<path class="st0" d="M369.35,441.26h37.45c3.11,0,5.63,2.52,5.63,5.63l0,0c0,3.11-2.52,5.63-5.63,5.63h-45.51
			c-2.86,0-5.17-2.32-5.17-5.17v-45.96c0-2.86,2.32-5.17,5.17-5.17h45.51c3.11,0,5.63,2.52,5.63,5.63l0,0
			c0,3.11-2.52,5.63-5.63,5.63h-37.45c-1.09,0-1.97,0.88-1.97,1.97v7.32c0,1.09,0.88,1.97,1.97,1.97h37.45
			c3.11,0,5.63,2.52,5.63,5.63l0,0c0,3.11-2.52,5.63-5.63,5.63h-37.45c-1.09,0-1.97,0.88-1.97,1.97v7.32
			C367.38,440.37,368.26,441.26,369.35,441.26z"/>
		<path class="st0" d="M442.46,429.99c-12.51,0-18.77-5.63-18.77-16.89s6.26-16.89,18.77-16.89h31.91c3.11,0,5.63,2.52,5.63,5.63
			l0,0c0,3.11-2.52,5.63-5.63,5.63h-30.03c-6.26,0-9.39,1.88-9.39,5.63s3.13,5.63,9.39,5.63h16.89c12.51,0,18.77,5.63,18.77,16.89
			s-6.26,16.89-18.77,16.89h-31.91c-3.11,0-5.63-2.52-5.63-5.63l0,0c0-3.11,2.52-5.63,5.63-5.63h30.03c6.26,0,9.39-1.88,9.39-5.63
			s-3.13-5.63-9.39-5.63H442.46z"/>
	</g>
</g>
</svg>
